<svg width="6316" height="2139" xmlns="http://www.w3.org/2000/svg" xmlns:xlink="http://www.w3.org/1999/xlink" xml:space="preserve" overflow="hidden"><g transform="translate(-2471 919)"><path d="M4796.2-380.673 4356.01 410.514 4818.76 410.514ZM6018.4-588.25 6080.31-584.187C6473.59-538.597 6715.57-321.338 6449.2 303.169 6317.14 631.956 5979.56 803.902 5690.41 755.196L5672.05 751.045ZM6584.54-918.191 7458.56-918.191 7265.27-170.797 7961.23-170.797 8154.51-918.191 8786.85-918.191 8233.95 1219.81 7601.61 1219.81 7827.69 345.583 7131.74 345.583 6905.66 1219.81 6018.81 1219.81 6072.98 1216.32C6423.87 1173.37 6802.44 886.062 6985.63 433.277 7312.55-339.205 7131.4-820.621 6671.36-907.582ZM3024.76-918.193 4809.72-918.193 4809.72-918.193 5296.7-918.193 5480.82 1219.81 4841.86 1219.81 4831.94 872.539 4098.96 872.539 3905.74 1219.81 3293.76 1219.81 3293.76 1219.81 2471.85 1219.81 2551.87 910.407 3483.33 910.407 3667.22 610.28 2629.48 610.28 2709.5 300.863 3856.81 300.863 4040.69 0.741821 2787.11 0.741821 2867.13-308.662 4230.27-308.662 4414.15-608.79 2944.75-608.79Z" fill="#0F746C" fill-rule="evenodd"/></g></svg>